<mxfile host="Electron" modified="2024-01-14T21:12:26.002Z" agent="Mozilla/5.0 (Windows NT 10.0; Win64; x64) AppleWebKit/537.36 (KHTML, like Gecko) draw.io/22.1.18 Chrome/120.0.6099.199 Electron/28.1.2 Safari/537.36" etag="c8vq9RMA7NPhzM9EKrya" version="22.1.18" type="device">
  <diagram id="C5RBs43oDa-KdzZeNtuy" name="Page-1">
    <mxGraphModel dx="702" dy="827" grid="0" gridSize="10" guides="1" tooltips="1" connect="1" arrows="1" fold="1" page="1" pageScale="1" pageWidth="827" pageHeight="1169" background="#ffffff" math="0" shadow="0">
      <root>
        <mxCell id="WIyWlLk6GJQsqaUBKTNV-0" />
        <mxCell id="WIyWlLk6GJQsqaUBKTNV-1" parent="WIyWlLk6GJQsqaUBKTNV-0" />
        <mxCell id="5ojSt5_JXw6rjkEzILub-34" style="edgeStyle=orthogonalEdgeStyle;rounded=0;orthogonalLoop=1;jettySize=auto;html=1;entryX=0.5;entryY=1;entryDx=0;entryDy=0;labelBackgroundColor=none;fontColor=#000000;fillColor=#f5f5f5;strokeColor=#666666;" edge="1" parent="WIyWlLk6GJQsqaUBKTNV-1" source="5ojSt5_JXw6rjkEzILub-2" target="5ojSt5_JXw6rjkEzILub-32">
          <mxGeometry relative="1" as="geometry" />
        </mxCell>
        <mxCell id="5ojSt5_JXw6rjkEzILub-2" value="&lt;font style=&quot;font-size: 15px;&quot;&gt;Labelled dataset on emotions in text&lt;/font&gt;" style="text;html=1;align=center;verticalAlign=middle;resizable=0;points=[];autosize=1;strokeColor=none;fillColor=none;labelBackgroundColor=none;fontColor=#000000;" vertex="1" parent="WIyWlLk6GJQsqaUBKTNV-1">
          <mxGeometry x="270" y="920" width="260" height="30" as="geometry" />
        </mxCell>
        <mxCell id="5ojSt5_JXw6rjkEzILub-11" value="Hyperparameter Tuning (Grid search)" style="swimlane;whiteSpace=wrap;html=1;startSize=20;labelBackgroundColor=none;fillColor=#ffe6cc;strokeColor=#d79b00;fontColor=#000000;" vertex="1" parent="WIyWlLk6GJQsqaUBKTNV-1">
          <mxGeometry x="160" y="400" width="480" height="320" as="geometry" />
        </mxCell>
        <mxCell id="5ojSt5_JXw6rjkEzILub-45" style="edgeStyle=orthogonalEdgeStyle;rounded=0;orthogonalLoop=1;jettySize=auto;html=1;entryX=0;entryY=0.5;entryDx=0;entryDy=0;labelBackgroundColor=none;fontColor=#000000;fillColor=#f5f5f5;strokeColor=#666666;" edge="1" parent="5ojSt5_JXw6rjkEzILub-11" source="5ojSt5_JXw6rjkEzILub-13" target="5ojSt5_JXw6rjkEzILub-17">
          <mxGeometry relative="1" as="geometry" />
        </mxCell>
        <mxCell id="5ojSt5_JXw6rjkEzILub-56" style="edgeStyle=orthogonalEdgeStyle;rounded=0;orthogonalLoop=1;jettySize=auto;html=1;entryX=0.5;entryY=1;entryDx=0;entryDy=0;labelBackgroundColor=none;fontColor=#000000;fillColor=#f5f5f5;strokeColor=#666666;" edge="1" parent="5ojSt5_JXw6rjkEzILub-11" source="5ojSt5_JXw6rjkEzILub-24" target="5ojSt5_JXw6rjkEzILub-50">
          <mxGeometry relative="1" as="geometry" />
        </mxCell>
        <mxCell id="5ojSt5_JXw6rjkEzILub-13" value="Build model" style="rounded=0;whiteSpace=wrap;html=1;labelBackgroundColor=none;fillColor=#ffe6cc;strokeColor=#d79b00;fontColor=#000000;" vertex="1" parent="5ojSt5_JXw6rjkEzILub-11">
          <mxGeometry x="40" y="160" width="120" height="40" as="geometry" />
        </mxCell>
        <mxCell id="5ojSt5_JXw6rjkEzILub-15" value="K-Fold Evaluation (k = 5)" style="swimlane;whiteSpace=wrap;html=1;startSize=20;labelBackgroundColor=none;fillColor=#ffe6cc;strokeColor=#d79b00;fontColor=#000000;" vertex="1" parent="5ojSt5_JXw6rjkEzILub-11">
          <mxGeometry x="200" y="120" width="280" height="200" as="geometry" />
        </mxCell>
        <mxCell id="5ojSt5_JXw6rjkEzILub-41" style="edgeStyle=orthogonalEdgeStyle;rounded=0;orthogonalLoop=1;jettySize=auto;html=1;entryX=1;entryY=0.5;entryDx=0;entryDy=0;labelBackgroundColor=none;fontColor=#000000;fillColor=#f5f5f5;strokeColor=#666666;" edge="1" parent="5ojSt5_JXw6rjkEzILub-15" source="5ojSt5_JXw6rjkEzILub-16" target="5ojSt5_JXw6rjkEzILub-18">
          <mxGeometry relative="1" as="geometry" />
        </mxCell>
        <mxCell id="5ojSt5_JXw6rjkEzILub-42" style="edgeStyle=orthogonalEdgeStyle;rounded=0;orthogonalLoop=1;jettySize=auto;html=1;exitX=0.5;exitY=0;exitDx=0;exitDy=0;entryX=0.5;entryY=1;entryDx=0;entryDy=0;labelBackgroundColor=none;fontColor=#000000;fillColor=#f5f5f5;strokeColor=#666666;" edge="1" parent="5ojSt5_JXw6rjkEzILub-15" source="5ojSt5_JXw6rjkEzILub-16" target="5ojSt5_JXw6rjkEzILub-24">
          <mxGeometry relative="1" as="geometry" />
        </mxCell>
        <mxCell id="5ojSt5_JXw6rjkEzILub-16" value="Split train-test (with K-Fold)" style="rounded=0;whiteSpace=wrap;html=1;labelBackgroundColor=none;fillColor=#dae8fc;strokeColor=#6c8ebf;fontColor=#000000;" vertex="1" parent="5ojSt5_JXw6rjkEzILub-15">
          <mxGeometry x="180" y="140" width="80" height="40" as="geometry" />
        </mxCell>
        <mxCell id="5ojSt5_JXw6rjkEzILub-44" style="edgeStyle=orthogonalEdgeStyle;rounded=0;orthogonalLoop=1;jettySize=auto;html=1;entryX=0;entryY=0.5;entryDx=0;entryDy=0;labelBackgroundColor=none;fontColor=#000000;fillColor=#f5f5f5;strokeColor=#666666;" edge="1" parent="5ojSt5_JXw6rjkEzILub-15" source="5ojSt5_JXw6rjkEzILub-17" target="5ojSt5_JXw6rjkEzILub-24">
          <mxGeometry relative="1" as="geometry" />
        </mxCell>
        <mxCell id="5ojSt5_JXw6rjkEzILub-17" value="Fit model" style="rounded=0;whiteSpace=wrap;html=1;labelBackgroundColor=none;fillColor=#ffe6cc;strokeColor=#d79b00;fontColor=#000000;" vertex="1" parent="5ojSt5_JXw6rjkEzILub-15">
          <mxGeometry x="20" y="40" width="80" height="40" as="geometry" />
        </mxCell>
        <mxCell id="5ojSt5_JXw6rjkEzILub-43" style="edgeStyle=orthogonalEdgeStyle;rounded=0;orthogonalLoop=1;jettySize=auto;html=1;exitX=0.5;exitY=0;exitDx=0;exitDy=0;entryX=0.5;entryY=1;entryDx=0;entryDy=0;labelBackgroundColor=none;fontColor=#000000;fillColor=#f5f5f5;strokeColor=#666666;" edge="1" parent="5ojSt5_JXw6rjkEzILub-15" source="5ojSt5_JXw6rjkEzILub-18" target="5ojSt5_JXw6rjkEzILub-17">
          <mxGeometry relative="1" as="geometry" />
        </mxCell>
        <mxCell id="5ojSt5_JXw6rjkEzILub-18" value="Oversample" style="rounded=0;whiteSpace=wrap;html=1;labelBackgroundColor=none;fillColor=#dae8fc;strokeColor=#6c8ebf;fontColor=#000000;" vertex="1" parent="5ojSt5_JXw6rjkEzILub-15">
          <mxGeometry x="20" y="140" width="80" height="40" as="geometry" />
        </mxCell>
        <mxCell id="5ojSt5_JXw6rjkEzILub-20" value="&lt;font style=&quot;font-size: 12px;&quot;&gt;Train data&lt;/font&gt;" style="text;html=1;align=center;verticalAlign=top;resizable=0;points=[];autosize=1;strokeColor=none;fillColor=none;labelBackgroundColor=none;fontColor=#333333;" vertex="1" parent="5ojSt5_JXw6rjkEzILub-15">
          <mxGeometry x="100" y="160" width="80" height="30" as="geometry" />
        </mxCell>
        <mxCell id="5ojSt5_JXw6rjkEzILub-24" value="Evaluate model" style="rounded=0;whiteSpace=wrap;html=1;labelBackgroundColor=none;fillColor=#ffe6cc;strokeColor=#d79b00;fontColor=#000000;" vertex="1" parent="5ojSt5_JXw6rjkEzILub-15">
          <mxGeometry x="180" y="40" width="80" height="40" as="geometry" />
        </mxCell>
        <mxCell id="5ojSt5_JXw6rjkEzILub-27" value="&lt;font style=&quot;font-size: 12px;&quot;&gt;Test data&lt;/font&gt;" style="text;html=1;align=center;verticalAlign=middle;resizable=0;points=[];autosize=1;strokeColor=none;fillColor=none;horizontal=1;spacing=1;labelBackgroundColor=none;fontColor=#333333;" vertex="1" parent="5ojSt5_JXw6rjkEzILub-15">
          <mxGeometry x="150" y="100" width="70" height="30" as="geometry" />
        </mxCell>
        <mxCell id="5ojSt5_JXw6rjkEzILub-46" style="edgeStyle=orthogonalEdgeStyle;rounded=0;orthogonalLoop=1;jettySize=auto;html=1;entryX=0.5;entryY=1;entryDx=0;entryDy=0;labelBackgroundColor=none;fontColor=#000000;fillColor=#f5f5f5;strokeColor=#666666;" edge="1" parent="5ojSt5_JXw6rjkEzILub-11" source="5ojSt5_JXw6rjkEzILub-3" target="5ojSt5_JXw6rjkEzILub-13">
          <mxGeometry relative="1" as="geometry" />
        </mxCell>
        <mxCell id="5ojSt5_JXw6rjkEzILub-3" value="Select hyperparameter" style="rounded=0;whiteSpace=wrap;html=1;labelBackgroundColor=none;fillColor=#ffe6cc;strokeColor=#d79b00;fontColor=#000000;" vertex="1" parent="5ojSt5_JXw6rjkEzILub-11">
          <mxGeometry x="40" y="240" width="120" height="40" as="geometry" />
        </mxCell>
        <mxCell id="5ojSt5_JXw6rjkEzILub-55" style="edgeStyle=orthogonalEdgeStyle;rounded=0;orthogonalLoop=1;jettySize=auto;html=1;entryX=1;entryY=0.5;entryDx=0;entryDy=0;labelBackgroundColor=none;fontColor=#000000;fillColor=#f5f5f5;strokeColor=#666666;" edge="1" parent="5ojSt5_JXw6rjkEzILub-11" source="5ojSt5_JXw6rjkEzILub-50" target="5ojSt5_JXw6rjkEzILub-54">
          <mxGeometry relative="1" as="geometry">
            <Array as="points">
              <mxPoint x="260" y="75" />
              <mxPoint x="260" y="75" />
            </Array>
          </mxGeometry>
        </mxCell>
        <mxCell id="5ojSt5_JXw6rjkEzILub-50" value="Update best model" style="rounded=0;whiteSpace=wrap;html=1;labelBackgroundColor=none;fillColor=#ffe6cc;strokeColor=#d79b00;fontColor=#000000;" vertex="1" parent="5ojSt5_JXw6rjkEzILub-11">
          <mxGeometry x="380" y="55" width="80" height="40" as="geometry" />
        </mxCell>
        <mxCell id="5ojSt5_JXw6rjkEzILub-57" style="edgeStyle=orthogonalEdgeStyle;rounded=0;orthogonalLoop=1;jettySize=auto;html=1;entryX=0;entryY=0.5;entryDx=0;entryDy=0;labelBackgroundColor=none;fontColor=#000000;fillColor=#f5f5f5;strokeColor=#666666;" edge="1" parent="5ojSt5_JXw6rjkEzILub-11" source="5ojSt5_JXw6rjkEzILub-54" target="5ojSt5_JXw6rjkEzILub-3">
          <mxGeometry relative="1" as="geometry">
            <Array as="points">
              <mxPoint x="20" y="75" />
              <mxPoint x="20" y="260" />
            </Array>
          </mxGeometry>
        </mxCell>
        <mxCell id="5ojSt5_JXw6rjkEzILub-54" value="Finished?" style="shape=rhombus;html=1;dashed=0;whiteSpace=wrap;perimeter=rhombusPerimeter;labelBackgroundColor=none;fillColor=#ffe6cc;strokeColor=#d79b00;fontColor=#000000;" vertex="1" parent="5ojSt5_JXw6rjkEzILub-11">
          <mxGeometry x="50" y="40" width="100" height="70" as="geometry" />
        </mxCell>
        <mxCell id="5ojSt5_JXw6rjkEzILub-58" value="No" style="text;html=1;align=center;verticalAlign=middle;resizable=0;points=[];autosize=1;strokeColor=none;fillColor=none;labelBackgroundColor=none;fontColor=#333333;" vertex="1" parent="5ojSt5_JXw6rjkEzILub-11">
          <mxGeometry x="20" y="50" width="40" height="30" as="geometry" />
        </mxCell>
        <mxCell id="5ojSt5_JXw6rjkEzILub-60" value="Yes" style="text;html=1;align=center;verticalAlign=middle;resizable=0;points=[];autosize=1;strokeColor=none;fillColor=none;labelBackgroundColor=none;fontColor=#333333;" vertex="1" parent="5ojSt5_JXw6rjkEzILub-11">
          <mxGeometry x="100" y="20" width="40" height="30" as="geometry" />
        </mxCell>
        <mxCell id="5ojSt5_JXw6rjkEzILub-72" style="edgeStyle=orthogonalEdgeStyle;rounded=0;orthogonalLoop=1;jettySize=auto;html=1;exitX=0.5;exitY=0;exitDx=0;exitDy=0;entryX=0.5;entryY=1;entryDx=0;entryDy=0;labelBackgroundColor=none;fontColor=#000000;fillColor=#f5f5f5;strokeColor=#666666;" edge="1" parent="WIyWlLk6GJQsqaUBKTNV-1" source="5ojSt5_JXw6rjkEzILub-32" target="5ojSt5_JXw6rjkEzILub-33">
          <mxGeometry relative="1" as="geometry" />
        </mxCell>
        <mxCell id="5ojSt5_JXw6rjkEzILub-32" value="Data Preprocessing" style="rounded=0;whiteSpace=wrap;html=1;labelBackgroundColor=none;fillColor=#dae8fc;strokeColor=#6c8ebf;fontColor=#000000;" vertex="1" parent="WIyWlLk6GJQsqaUBKTNV-1">
          <mxGeometry x="340" y="840" width="120" height="40" as="geometry" />
        </mxCell>
        <mxCell id="5ojSt5_JXw6rjkEzILub-73" style="edgeStyle=orthogonalEdgeStyle;rounded=0;orthogonalLoop=1;jettySize=auto;html=1;entryX=0;entryY=0.5;entryDx=0;entryDy=0;labelBackgroundColor=none;fontColor=#000000;fillColor=#f5f5f5;strokeColor=#666666;" edge="1" parent="WIyWlLk6GJQsqaUBKTNV-1" source="5ojSt5_JXw6rjkEzILub-8" target="5ojSt5_JXw6rjkEzILub-87">
          <mxGeometry relative="1" as="geometry">
            <mxPoint x="130" y="780" as="targetPoint" />
            <Array as="points">
              <mxPoint x="140" y="780" />
              <mxPoint x="140" y="260" />
            </Array>
          </mxGeometry>
        </mxCell>
        <mxCell id="5ojSt5_JXw6rjkEzILub-33" value="Split train-test data" style="rounded=0;whiteSpace=wrap;html=1;labelBackgroundColor=none;fillColor=#dae8fc;strokeColor=#6c8ebf;fontColor=#000000;" vertex="1" parent="WIyWlLk6GJQsqaUBKTNV-1">
          <mxGeometry x="340" y="760" width="120" height="40" as="geometry" />
        </mxCell>
        <mxCell id="5ojSt5_JXw6rjkEzILub-67" value="" style="edgeStyle=orthogonalEdgeStyle;rounded=0;orthogonalLoop=1;jettySize=auto;html=1;exitX=1;exitY=0.5;exitDx=0;exitDy=0;labelBackgroundColor=none;fontColor=#000000;fillColor=#f5f5f5;strokeColor=#666666;" edge="1" parent="WIyWlLk6GJQsqaUBKTNV-1" source="5ojSt5_JXw6rjkEzILub-33" target="5ojSt5_JXw6rjkEzILub-9">
          <mxGeometry relative="1" as="geometry">
            <mxPoint x="680" y="360" as="targetPoint" />
            <mxPoint x="440" y="780" as="sourcePoint" />
          </mxGeometry>
        </mxCell>
        <mxCell id="5ojSt5_JXw6rjkEzILub-93" style="edgeStyle=orthogonalEdgeStyle;rounded=0;orthogonalLoop=1;jettySize=auto;html=1;entryX=0.5;entryY=1;entryDx=0;entryDy=0;labelBackgroundColor=none;fontColor=#000000;fillColor=#f5f5f5;strokeColor=#666666;" edge="1" parent="WIyWlLk6GJQsqaUBKTNV-1" source="5ojSt5_JXw6rjkEzILub-9" target="5ojSt5_JXw6rjkEzILub-16">
          <mxGeometry relative="1" as="geometry" />
        </mxCell>
        <mxCell id="5ojSt5_JXw6rjkEzILub-94" style="edgeStyle=orthogonalEdgeStyle;rounded=0;orthogonalLoop=1;jettySize=auto;html=1;entryX=1;entryY=0.5;entryDx=0;entryDy=0;labelBackgroundColor=none;fontColor=#000000;fillColor=#f5f5f5;strokeColor=#666666;" edge="1" parent="WIyWlLk6GJQsqaUBKTNV-1" source="5ojSt5_JXw6rjkEzILub-9" target="5ojSt5_JXw6rjkEzILub-69">
          <mxGeometry relative="1" as="geometry">
            <Array as="points">
              <mxPoint x="660" y="780" />
              <mxPoint x="660" y="343" />
            </Array>
          </mxGeometry>
        </mxCell>
        <mxCell id="5ojSt5_JXw6rjkEzILub-9" value="&lt;font style=&quot;font-size: 15px;&quot;&gt;Train data&lt;/font&gt;" style="text;html=1;align=center;verticalAlign=middle;resizable=0;points=[];autosize=1;strokeColor=none;fillColor=none;labelBackgroundColor=none;fontColor=#333333;" vertex="1" parent="WIyWlLk6GJQsqaUBKTNV-1">
          <mxGeometry x="535" y="765" width="90" height="30" as="geometry" />
        </mxCell>
        <mxCell id="5ojSt5_JXw6rjkEzILub-85" style="edgeStyle=orthogonalEdgeStyle;rounded=0;orthogonalLoop=1;jettySize=auto;html=1;exitX=0.75;exitY=0;exitDx=0;exitDy=0;entryX=0.5;entryY=1;entryDx=0;entryDy=0;labelBackgroundColor=none;fontColor=#000000;fillColor=#f5f5f5;strokeColor=#666666;" edge="1" parent="WIyWlLk6GJQsqaUBKTNV-1" source="5ojSt5_JXw6rjkEzILub-69" target="5ojSt5_JXw6rjkEzILub-75">
          <mxGeometry relative="1" as="geometry" />
        </mxCell>
        <mxCell id="5ojSt5_JXw6rjkEzILub-86" style="edgeStyle=orthogonalEdgeStyle;rounded=0;orthogonalLoop=1;jettySize=auto;html=1;exitX=0.25;exitY=0;exitDx=0;exitDy=0;entryX=1;entryY=0.5;entryDx=0;entryDy=0;labelBackgroundColor=none;fontColor=#000000;fillColor=#f5f5f5;strokeColor=#666666;" edge="1" parent="WIyWlLk6GJQsqaUBKTNV-1" source="5ojSt5_JXw6rjkEzILub-69" target="5ojSt5_JXw6rjkEzILub-87">
          <mxGeometry relative="1" as="geometry">
            <mxPoint x="460" y="260" as="targetPoint" />
          </mxGeometry>
        </mxCell>
        <mxCell id="5ojSt5_JXw6rjkEzILub-69" value="Fit model on entire training data set" style="rounded=0;whiteSpace=wrap;html=1;labelBackgroundColor=none;fillColor=#ffe6cc;strokeColor=#d79b00;fontColor=#000000;" vertex="1" parent="WIyWlLk6GJQsqaUBKTNV-1">
          <mxGeometry x="400" y="325" width="240" height="35" as="geometry" />
        </mxCell>
        <mxCell id="5ojSt5_JXw6rjkEzILub-74" value="" style="edgeStyle=orthogonalEdgeStyle;rounded=0;orthogonalLoop=1;jettySize=auto;html=1;labelBackgroundColor=none;fontColor=#000000;fillColor=#f5f5f5;strokeColor=#666666;" edge="1" parent="WIyWlLk6GJQsqaUBKTNV-1" source="5ojSt5_JXw6rjkEzILub-33" target="5ojSt5_JXw6rjkEzILub-8">
          <mxGeometry relative="1" as="geometry">
            <mxPoint x="130" y="780" as="targetPoint" />
            <mxPoint x="320" y="780" as="sourcePoint" />
          </mxGeometry>
        </mxCell>
        <mxCell id="5ojSt5_JXw6rjkEzILub-8" value="&lt;font style=&quot;font-size: 15px;&quot;&gt;Test data&lt;br&gt;&lt;/font&gt;" style="text;html=1;align=center;verticalAlign=middle;resizable=0;points=[];autosize=1;strokeColor=none;fillColor=none;labelBackgroundColor=none;fontColor=#333333;" vertex="1" parent="WIyWlLk6GJQsqaUBKTNV-1">
          <mxGeometry x="200" y="765" width="80" height="30" as="geometry" />
        </mxCell>
        <mxCell id="5ojSt5_JXw6rjkEzILub-75" value="Save model" style="rounded=0;whiteSpace=wrap;html=1;labelBackgroundColor=none;fillColor=#ffe6cc;strokeColor=#d79b00;fontColor=#000000;" vertex="1" parent="WIyWlLk6GJQsqaUBKTNV-1">
          <mxGeometry x="520" y="240" width="120" height="40" as="geometry" />
        </mxCell>
        <mxCell id="5ojSt5_JXw6rjkEzILub-82" style="edgeStyle=orthogonalEdgeStyle;rounded=0;orthogonalLoop=1;jettySize=auto;html=1;entryX=0;entryY=0.5;entryDx=0;entryDy=0;labelBackgroundColor=none;fontColor=#000000;fillColor=#f5f5f5;strokeColor=#666666;" edge="1" parent="WIyWlLk6GJQsqaUBKTNV-1" source="5ojSt5_JXw6rjkEzILub-61" target="5ojSt5_JXw6rjkEzILub-69">
          <mxGeometry relative="1" as="geometry" />
        </mxCell>
        <mxCell id="5ojSt5_JXw6rjkEzILub-61" value="&lt;font style=&quot;font-size: 15px;&quot;&gt;Best&amp;nbsp; hyperparameters&lt;/font&gt;" style="text;html=1;strokeColor=none;fillColor=none;align=center;verticalAlign=middle;whiteSpace=wrap;rounded=0;labelBackgroundColor=none;fontColor=#333333;" vertex="1" parent="WIyWlLk6GJQsqaUBKTNV-1">
          <mxGeometry x="185" y="317.5" width="150" height="50" as="geometry" />
        </mxCell>
        <mxCell id="5ojSt5_JXw6rjkEzILub-81" style="edgeStyle=orthogonalEdgeStyle;rounded=0;orthogonalLoop=1;jettySize=auto;html=1;entryX=0.5;entryY=1;entryDx=0;entryDy=0;labelBackgroundColor=none;fontColor=#000000;fillColor=#f5f5f5;strokeColor=#666666;" edge="1" parent="WIyWlLk6GJQsqaUBKTNV-1" source="5ojSt5_JXw6rjkEzILub-54" target="5ojSt5_JXw6rjkEzILub-61">
          <mxGeometry relative="1" as="geometry" />
        </mxCell>
        <mxCell id="5ojSt5_JXw6rjkEzILub-87" value="Evaluate model on test data" style="rounded=0;whiteSpace=wrap;html=1;labelBackgroundColor=none;fillColor=#ffe6cc;strokeColor=#d79b00;fontColor=#000000;" vertex="1" parent="WIyWlLk6GJQsqaUBKTNV-1">
          <mxGeometry x="200" y="240" width="120" height="40" as="geometry" />
        </mxCell>
      </root>
    </mxGraphModel>
  </diagram>
</mxfile>
